<?xml version="1.0" encoding="UTF-8"?><svg id="Ebene_2" xmlns="http://www.w3.org/2000/svg" viewBox="0 0 51.55 7.35"><defs><style>.cls-1{fill:#42b3ce;}</style></defs><g id="Ebene_1-2"><path class="cls-1" d="m9.44,6.13c.04.19.08.35.12.47s.07.23.11.31.08.16.13.23.1.13.17.19h-3.45c.07-.12.11-.23.14-.31.03-.08.04-.17.04-.25,0-.15-.03-.37-.09-.66l-.15-.76h-3.44l-.83,1.22c-.16.23-.24.42-.24.57v.09s0,.06.02.1H0c.16-.14.31-.28.44-.42s.29-.35.48-.61L4.88.42c-.1-.12-.19-.2-.26-.25s-.19-.11-.35-.17h3.89l1.28,6.14h0ZM5.65,1.4l-1.88,2.82h2.45s-.57-2.82-.57-2.82Z"/><path class="cls-1" d="m13.8,2.19v.37l-.04.29c.1-.18.19-.32.29-.44s.2-.21.31-.28c.11-.07.24-.12.39-.15s.32-.04.52-.04h1.5l-.46,1.76c-.12-.1-.25-.17-.39-.21s-.31-.07-.51-.07h-.92c-.23,0-.4.03-.51.1-.1.07-.18.19-.23.36l-.64,2.48c-.01.06-.03.15-.04.27s-.02.23-.02.31c0,.07,0,.14.01.19,0,.05.03.12.06.2h-3.1c.07-.1.12-.19.18-.27.05-.08.1-.17.13-.26.04-.09.07-.19.11-.31s.08-.25.12-.41l.81-3.17c.02-.07.04-.17.06-.29s.02-.22.02-.3c0-.07,0-.13-.01-.18s-.03-.12-.07-.2h2.48l-.02.25h-.03Z"/><path class="cls-1" d="m22.2,1.93c.23,0,.42.02.56.07.14.04.28.13.42.25.14.13.25.29.34.48.08.19.13.37.13.56,0,.09,0,.2-.03.34-.02.14-.05.27-.08.4l-.6,2.34c-.02.07-.04.17-.05.29-.02.12-.02.22-.02.3,0,.07,0,.13.01.18s.03.12.07.2h-2.61c-.03-.08-.05-.14-.06-.19s-.01-.11-.01-.18v-.15c-.1.19-.23.33-.4.41-.16.08-.38.12-.65.12h-1.56c-.26,0-.49-.03-.67-.08-.18-.06-.35-.14-.5-.27-.15-.12-.27-.27-.35-.43s-.12-.34-.12-.52c0-.07,0-.15.02-.24.01-.09.03-.18.06-.26l.13-.52c.07-.28.16-.5.26-.67s.23-.3.4-.4c.07-.04.13-.08.2-.1s.14-.05.23-.06c.08-.01.18-.03.29-.03s.24-.01.39-.01h2.78s.07-.02.12-.06c.04-.04.07-.09.1-.16s.04-.14.04-.23c0-.11-.04-.19-.13-.23-.08-.04-.23-.06-.45-.06h-2.62c-.27,0-.49.02-.65.04s-.33.08-.49.16l.58-1.26h4.93v-.03Zm-2.79,2.83c-.11,0-.2,0-.26.02-.07.01-.12.03-.17.06s-.08.07-.1.13c-.03.06-.05.14-.07.23l-.14.55c-.02.08-.03.13-.04.15v.07c0,.12.04.21.11.25s.21.07.41.07h.65c.12,0,.21,0,.27-.01.07,0,.12-.02.16-.05.04-.03.07-.06.1-.12.03-.05.05-.12.07-.21l.3-1.14h-1.29Z"/><path class="cls-1" d="m31.74,1.42c-.1-.04-.19-.08-.26-.11s-.14-.05-.21-.07-.15-.03-.23-.03h-2.23c-.17,0-.3,0-.4.02-.1.01-.18.04-.24.08s-.11.1-.15.17-.07.17-.1.29l-.95,3.69c-.03.1-.05.17-.05.21s-.01.08-.01.12c0,.15.08.26.25.31.06.01.11.02.15.03h2.18c.41,0,.78-.08,1.12-.25l-.59,1.47h-3.77c-.29,0-.51-.01-.68-.02-.17,0-.3-.01-.39-.02-.1-.01-.17-.03-.23-.04s-.12-.05-.2-.08c-.21-.1-.38-.26-.51-.46s-.19-.43-.19-.67c0-.09,0-.17.02-.26s.05-.22.1-.41l1-3.87c.07-.29.18-.53.31-.73.13-.2.3-.36.51-.48.21-.12.45-.21.74-.25C27.02,0,27.36,0,27.75,0h4.15l-.15,1.44v-.03Z"/><path class="cls-1" d="m37.44,1.93c.34,0,.62.04.82.12s.38.21.52.4c.09.12.16.25.21.41s.08.32.08.48c0,.08,0,.17-.02.26s-.04.21-.08.34l-.51,1.98c-.04.15-.08.27-.12.38-.04.11-.08.2-.13.28s-.1.15-.16.22c-.06.07-.13.13-.22.2-.08.06-.17.11-.25.15s-.19.07-.31.1-.26.04-.41.05-.34.02-.55.02h-3.26c-.21,0-.39,0-.52-.01-.14,0-.25-.02-.34-.04-.09-.02-.17-.05-.24-.08-.07-.04-.14-.09-.21-.15-.16-.13-.28-.29-.36-.47s-.12-.38-.12-.59c0-.08,0-.15.02-.21,0-.06.03-.15.05-.25l.62-2.37c.06-.23.16-.44.3-.63.14-.18.31-.32.51-.41.16-.07.35-.12.56-.15s.5-.04.86-.04h3.27,0Zm-3.51,3.73c-.03.12-.05.2-.05.24v.08c0,.2.17.3.5.3h.78c.12,0,.21,0,.29-.02.08-.01.14-.03.19-.07.05-.03.09-.08.12-.14s.05-.14.08-.24l.54-2.08c.04-.12.06-.2.07-.25s0-.09,0-.14c0-.12-.04-.22-.13-.27-.09-.06-.23-.09-.43-.09h-.66c-.12,0-.23,0-.31.02-.08.01-.15.04-.21.07-.05.03-.1.08-.13.14-.03.06-.06.14-.08.24l-.57,2.2h0Z"/><path class="cls-1" d="m42.88,2.45c.07-.11.13-.2.18-.26.05-.07.12-.12.19-.16s.16-.07.26-.08c.1-.01.22-.02.37-.02h2.66c.25,0,.42.04.52.11.1.07.19.21.27.42.1-.21.2-.35.31-.42s.28-.11.52-.11h1.93c.24,0,.43.03.6.09.16.06.31.16.45.31.12.14.22.3.3.48.07.18.11.37.11.56v.12s0,.08-.02.12c0,.04-.02.1-.03.15-.02.06-.03.14-.06.23l-.61,2.36c-.02.08-.04.18-.05.29-.02.11-.02.21-.02.29,0,.07,0,.14,0,.19s.03.12.07.2h-3.11c.07-.1.12-.19.17-.27.05-.08.09-.17.13-.26s.08-.19.12-.31.08-.25.12-.41l.62-2.4c0-.07.03-.14.04-.19,0-.05.02-.1.02-.15,0-.23-.17-.35-.52-.35h-.65c-.21,0-.35.04-.43.1-.08.07-.15.21-.21.43l-.73,2.84c-.02.07-.04.17-.06.29,0,.12-.02.22-.02.3,0,.07,0,.14,0,.19,0,.05.03.12.07.2h-3.11c.07-.1.12-.19.18-.27.05-.08.1-.17.13-.26.04-.09.07-.19.11-.3.04-.11.08-.25.12-.42l.62-2.35c.02-.09.04-.15.04-.2s0-.08.02-.1c0-.03,0-.05,0-.06v-.04c0-.1-.04-.18-.12-.24-.08-.06-.19-.09-.32-.09h-.66c-.24,0-.41.04-.5.1-.09.07-.17.23-.23.48l-.73,2.79c0,.06-.03.15-.04.27s-.02.23-.02.31c0,.07,0,.14,0,.19,0,.05.03.12.06.2h-3.1c.07-.1.12-.19.18-.27s.1-.17.13-.26c.04-.09.07-.19.11-.3s.08-.26.12-.42l.81-3.17c.02-.07.04-.17.06-.29,0-.12.02-.22.02-.3,0-.07,0-.13,0-.18,0-.05-.03-.12-.07-.2h2.79l-.13.52v-.02Z"/></g></svg>